<svg xmlns="http://www.w3.org/2000/svg" viewBox="0 0 322.5 103.8"><path d="M221.3 2.5h-24.8l-33.8 98.8h28.1l5.4-16.7h30.1l3.3 16.7h26.2L221.3 2.5zm-8.2 64.9l10-31.1 10.1 31.1H213.1zM294 2.5h-25.2c-5.9 0-10.3 1.8-13.2 5.5s-4.3 8.7-4.3 15.2c0 10.2 5.4 16.4 16.2 21.3l11.1 4.7c6.1 2.6 9.6 4.9 9.6 8.3s-2.7 5.7-8 5.7c-6.1 0-10.4-2.1-12.8-6.3l-20.2-7.3c-2.3-9.5-1.1-19.4 3.5-28.5 4.5-9.1 11.8-16.6 21.6-22.3 9.8-5.8 21.7-8.7 34-8.7h17.9v101.3H294V2.5zM120.9 101.3V2.5h26.2l17.4 69.4L181.9 2.5h25.8v101.3h-21.3V19.8l-18.4 72.3h-20.3L127.3 19.8v81.5H120.9zM52.9 2.5L29.6 57.6 27.2 46.1c-3.4-14.1-12.4-22.3-22.7-26.2-2.1-.8-4.3-1.3-6.6-1.5L0 18.2V2.5h48.3c2.4 0 4.1.4 5.1 1.2l-1.5 97.6h28.1L114.3 2.5H52.9z" fill="#142688"/></svg> 